<svg width="20" height="20" viewBox="0 0 20 20" fill="none" xmlns="http://www.w3.org/2000/svg">
<path d="M10 20C15.5228 20 20 15.5228 20 10C20 4.47715 15.5228 0 10 0C4.47715 0 0 4.47715 0 10C0 15.5228 4.47715 20 10 20Z" fill="#039BE5"/>
<path d="M4.57654 9.78253L14.2182 6.06503C14.6657 5.90336 15.0565 6.1742 14.9115 6.85086L14.9124 6.85003L13.2707 14.5842C13.149 15.1325 12.8232 15.2659 12.3674 15.0075L9.86737 13.165L8.66154 14.3267C8.52821 14.46 8.41571 14.5725 8.15737 14.5725L8.33487 12.0284L12.9682 7.84253C13.1699 7.66503 12.9232 7.56503 12.6574 7.7417L6.93154 11.3467L4.46321 10.5767C3.92737 10.4067 3.91571 10.0409 4.57654 9.78253Z" fill="white"/>
</svg>
