<svg width="20" height="20" viewBox="0 0 20 20" fill="none" xmlns="http://www.w3.org/2000/svg">
<path d="M10.0025 0H9.9975C4.48375 0 0 4.485 0 10C0 12.1875 0.705 14.215 1.90375 15.8612L0.6575 19.5763L4.50125 18.3475C6.0825 19.395 7.96875 20 10.0025 20C15.5162 20 20 15.5138 20 10C20 4.48625 15.5162 0 10.0025 0Z" fill="#4CAF50"/>
<path d="M15.8227 14.1217C15.5814 14.803 14.6239 15.368 13.8602 15.533C13.3377 15.6442 12.6552 15.733 10.3577 14.7805C7.41891 13.563 5.52641 10.5767 5.37891 10.383C5.23766 10.1892 4.19141 8.80172 4.19141 7.36672C4.19141 5.93172 4.92016 5.23297 5.21391 4.93297C5.45516 4.68672 5.85391 4.57422 6.23641 4.57422C6.36016 4.57422 6.47141 4.58047 6.57141 4.58547C6.86516 4.59797 7.01266 4.61547 7.20641 5.07922C7.44766 5.66047 8.03516 7.09547 8.10516 7.24297C8.17641 7.39047 8.24766 7.59047 8.14766 7.78422C8.05391 7.98422 7.97141 8.07297 7.82391 8.24297C7.67641 8.41297 7.53641 8.54297 7.38891 8.72547C7.25391 8.88422 7.10141 9.05422 7.27141 9.34797C7.44141 9.63547 8.02891 10.5942 8.89391 11.3642C10.0102 12.358 10.9152 12.6755 11.2389 12.8105C11.4802 12.9105 11.7677 12.8867 11.9439 12.6992C12.1677 12.458 12.4439 12.058 12.7252 11.6642C12.9252 11.3817 13.1777 11.3467 13.4427 11.4467C13.7127 11.5405 15.1414 12.2467 15.4352 12.393C15.7289 12.5405 15.9227 12.6105 15.9939 12.7342C16.0639 12.858 16.0639 13.4392 15.8227 14.1217Z" fill="#FAFAFA"/>
</svg>
