<svg width="20" height="20" fill="none" xmlns="http://www.w3.org/2000/svg"><path d="M10.002 0h-.005C4.485 0 0 4.485 0 10c0 2.188.705 4.215 1.904 5.861L.658 19.576 4.5 18.347A9.913 9.913 0 0010.002 20C15.517 20 20 15.514 20 10S15.516 0 10.002 0z" fill="#4CAF50"/><path d="M15.823 14.122c-.242.681-1.2 1.246-1.963 1.411-.522.111-1.205.2-3.502-.752-2.94-1.218-4.832-4.204-4.98-4.398-.14-.194-1.187-1.581-1.187-3.016s.73-2.134 1.023-2.434c.241-.246.64-.359 1.022-.359.124 0 .235.006.335.011.294.013.442.03.635.494.242.581.83 2.016.9 2.164.07.147.142.347.042.541-.094.2-.177.289-.324.459-.148.17-.288.3-.435.482-.135.16-.288.33-.118.623.17.287.758 1.246 1.623 2.016 1.116.994 2.021 1.311 2.345 1.446.241.1.529.077.705-.11.224-.242.5-.642.781-1.036.2-.282.453-.317.718-.217.27.094 1.698.8 1.992.946.294.147.488.217.559.341.07.124.07.705-.171 1.388z" fill="#FAFAFA"/></svg>