<svg width="18" height="18" fill="none" xmlns="http://www.w3.org/2000/svg"><g clip-path="url(#clip0)" fill="#fff"><path d="M7.454 5.892a.563.563 0 00-.85.483v5.25c0 .44.478.705.85.484l4.402-2.621a.563.563 0 000-.967L7.455 5.892zm.275 4.744v-3.27l2.74 1.637-2.74 1.633z"/><path d="M14.928 2.453c-3.49-.518-8.365-.518-11.856 0C1.675 2.66.575 3.757.335 5.18c-.447 2.642-.447 4.998 0 7.64.24 1.424 1.34 2.52 2.737 2.727 1.749.26 3.843.389 5.936.389 2.09 0 4.179-.13 5.92-.389 1.396-.207 2.495-1.302 2.737-2.727.447-2.642.447-4.998 0-7.64-.24-1.423-1.34-2.52-2.737-2.727zm1.627 10.18c-.16.942-.88 1.666-1.792 1.801-3.389.504-8.128.504-11.526 0-.913-.136-1.634-.86-1.793-1.802-.43-2.545-.43-4.718 0-7.265.16-.942.88-1.665 1.794-1.802 1.696-.25 3.73-.377 5.761-.377 2.034 0 4.067.126 5.763.377.914.136 1.634.86 1.793 1.802.431 2.547.431 4.72 0 7.266z"/></g><defs><clipPath id="clip0"><path fill="#fff" d="M0 0h18v18H0z"/></clipPath></defs></svg>