<svg width="18" height="18" fill="none" xmlns="http://www.w3.org/2000/svg"><g opacity=".5" clip-path="url(#clip0)"><path d="M17.78 16.72l-5.119-5.12a7.09 7.09 0 001.589-4.475C14.25 3.196 11.053 0 7.125 0A7.133 7.133 0 000 7.125c0 3.928 3.196 7.125 7.125 7.125a7.09 7.09 0 004.475-1.59l5.119 5.12a.748.748 0 001.06 0 .75.75 0 000-1.061zM7.125 12.75A5.63 5.63 0 011.5 7.125 5.63 5.63 0 017.125 1.5a5.63 5.63 0 015.625 5.625 5.63 5.63 0 01-5.625 5.625z" fill="#fff"/></g><defs><clipPath id="clip0"><path fill="#fff" d="M0 0h18v18H0z"/></clipPath></defs></svg>