<svg width="16" height="17" fill="none" xmlns="http://www.w3.org/2000/svg"><path d="M13.36 2.695A7.68 7.68 0 007.84.375C3.55.375.035 3.891.035 8.18c0 1.406.387 2.742 1.055 3.902L0 16.125l4.113-1.055c1.16.598 2.426.95 3.727.95 4.324 0 7.91-3.516 7.91-7.805 0-2.11-.914-4.043-2.39-5.52zM7.84 14.684a6.502 6.502 0 01-3.305-.914l-.21-.141-2.462.668.668-2.39-.176-.247a6.763 6.763 0 01-.984-3.48c0-3.551 2.918-6.47 6.504-6.47a6.41 6.41 0 014.57 1.9c1.23 1.23 1.97 2.847 1.97 4.605 0 3.55-2.99 6.469-6.575 6.469zm3.586-4.852a43.578 43.578 0 00-1.336-.633c-.176-.07-.317-.105-.457.106-.106.175-.492.633-.598.773-.14.106-.246.14-.422.035-1.16-.562-1.898-1.02-2.672-2.32-.21-.352.211-.316.563-1.055.07-.14.035-.246 0-.351-.035-.106-.457-1.055-.598-1.442-.176-.386-.316-.351-.457-.351h-.351a.66.66 0 00-.528.246c-.175.21-.668.668-.668 1.617 0 .984.668 1.898.774 2.04.105.105 1.37 2.073 3.34 2.917 1.23.563 1.722.598 2.355.492.352-.035 1.125-.457 1.3-.914.177-.457.177-.844.106-.914-.035-.105-.175-.14-.351-.246z" fill="#fff"/></svg>