<svg width="18" height="18" viewBox="0 0 18 18" fill="none" xmlns="http://www.w3.org/2000/svg">
<g clip-path="url(#clip0)">
<path d="M7.45402 5.8924C7.08127 5.66965 6.60352 5.9389 6.60352 6.3754V11.6254C6.60352 12.0642 7.08202 12.3297 7.45402 12.1092L11.8558 9.48791C12.2218 9.26966 12.221 8.74015 11.8565 8.52115L7.45402 5.8924ZM7.72852 10.6362V7.36615L10.4698 9.00341L7.72852 10.6362Z" fill="white"/>
<path d="M14.928 2.45509C11.4382 1.93684 6.56325 1.93684 3.072 2.45509C1.6755 2.66209 0.57525 3.75859 0.33525 5.18209C-0.11175 7.82434 -0.11175 10.1801 0.33525 12.8216C0.57525 14.2458 1.6755 15.3416 3.072 15.5486C4.821 15.8081 6.915 15.9378 9.00825 15.9378C11.0977 15.9378 13.1865 15.8088 14.9287 15.5493C16.3237 15.3423 17.4232 14.2466 17.6647 12.8223C18.1117 10.1801 18.1117 7.82359 17.6647 5.18134C17.4247 3.75859 16.3245 2.66209 14.928 2.45509ZM16.5555 12.6348C16.3957 13.5768 15.6757 14.3013 14.763 14.4363C11.3745 14.9396 6.6345 14.9396 3.237 14.4356C2.3235 14.2998 1.60275 13.5761 1.44375 12.6341C1.01325 10.0886 1.01325 7.91584 1.44375 5.36884C1.6035 4.42684 2.3235 3.70384 3.23775 3.56734C4.93425 3.31609 6.9675 3.19009 8.99925 3.19009C11.0325 3.19009 13.0657 3.31609 14.7622 3.56734C15.6757 3.70309 16.3965 4.42684 16.5555 5.36884C16.986 7.91584 16.986 10.0886 16.5555 12.6348Z" fill="white"/>
</g>
<defs>
<clipPath id="clip0">
<rect width="18" height="18" fill="white"/>
</clipPath>
</defs>
</svg>
