<svg width="14" height="14" viewBox="0 0 14 14" fill="none" xmlns="http://www.w3.org/2000/svg">
<path d="M13.4531 9.67969H10.7188V2.1875C10.7188 0.981313 9.73744 0 8.53125 0H2.1875C0.981313 0 0 0.981313 0 2.1875V2.73438C0 3.03641 0.244836 3.28125 0.546875 3.28125H1.64062V11.8125C1.64062 13.0187 2.62194 14 3.82812 14H11.8125C13.0187 14 14 13.0187 14 11.8125V10.2266C14 9.92452 13.7552 9.67969 13.4531 9.67969ZM1.09375 2.1875C1.09375 1.58441 1.58441 1.09375 2.1875 1.09375H6.63731C6.45069 1.41567 6.34375 1.78935 6.34375 2.1875H1.09375ZM3.82812 12.9062C3.22503 12.9062 2.73438 12.4156 2.73438 11.8125V3.28125H6.89062C7.19266 3.28125 7.4375 3.03641 7.4375 2.73438V2.1875C7.4375 1.58441 7.92816 1.09375 8.53125 1.09375C9.13434 1.09375 9.625 1.58441 9.625 2.1875V11.8125C9.625 12.2108 9.73252 12.5842 9.9193 12.9062H3.82812ZM12.9062 11.8125C12.9062 12.4156 12.4156 12.9062 11.8125 12.9062C11.2094 12.9062 10.7188 12.4156 10.7188 11.8125V10.7734H12.9062V11.8125ZM8.53125 5.23176C8.53125 5.5338 8.28641 5.77864 7.98438 5.77864H4.375C4.07296 5.77864 3.82812 5.5338 3.82812 5.23176C3.82812 4.92972 4.07296 4.68489 4.375 4.68489H7.98438C8.28641 4.68489 8.53125 4.92972 8.53125 5.23176ZM8.53125 7.72918C8.53125 8.03121 8.28641 8.27605 7.98438 8.27605H4.375C4.07296 8.27605 3.82812 8.03121 3.82812 7.72918C3.82812 7.42714 4.07296 7.1823 4.375 7.1823H7.98438C8.28641 7.1823 8.53125 7.42714 8.53125 7.72918ZM6.72656 10.2266C6.72656 10.5286 6.48173 10.7734 6.17969 10.7734H4.375C4.07296 10.7734 3.82812 10.5286 3.82812 10.2266C3.82812 9.92452 4.07296 9.67969 4.375 9.67969H6.17969C6.48173 9.67969 6.72656 9.92452 6.72656 10.2266Z" fill="white"/>
</svg>
