<svg width="14" height="14" viewBox="0 0 14 14" fill="none" xmlns="http://www.w3.org/2000/svg">
<path d="M12.7461 13.0664C12.9597 13.28 12.9597 13.6263 12.7461 13.8398C12.5325 14.0534 12.1862 14.0534 11.9727 13.8398L11.2656 13.1328L10.5586 13.8398C10.345 14.0534 9.99873 14.0534 9.78518 13.8398C9.5716 13.6262 9.5716 13.28 9.78518 13.0664L10.4922 12.3594L9.78515 11.6523C9.57157 11.4387 9.57157 11.0925 9.78515 10.8789C9.99873 10.6654 10.345 10.6653 10.5586 10.8789L11.2656 11.586L11.9727 10.8789C12.1862 10.6653 12.5325 10.6653 12.7461 10.8789C12.9596 11.0925 12.9597 11.4388 12.7461 11.6523L12.039 12.3594L12.7461 13.0664ZM8.53125 13.4531C8.53125 13.7552 8.28641 14 7.98438 14H1.64062C1.33859 14 1.09375 13.7552 1.09375 13.4531V3.82812C1.09375 3.52609 1.33859 3.28125 1.64062 3.28125H3.30712C3.52434 1.43615 5.0975 0 7 0C8.9025 0 10.4756 1.43615 10.6929 3.28125H12.3594C12.6614 3.28125 12.9062 3.52609 12.9062 3.82812V9.07812C12.9062 9.38016 12.6614 9.625 12.3594 9.625C12.0573 9.625 11.8125 9.38016 11.8125 9.07812V4.375H10.7188V6.01562C10.7188 6.31766 10.4739 6.5625 10.1719 6.5625C9.86984 6.5625 9.625 6.31766 9.625 6.01562V4.375H4.375V6.01562C4.375 6.31766 4.13016 6.5625 3.82812 6.5625C3.52609 6.5625 3.28125 6.31766 3.28125 6.01562V4.375H2.1875V12.9062H7.98438C8.28641 12.9062 8.53125 13.1511 8.53125 13.4531ZM4.41167 3.28125H9.58833C9.37943 2.04135 8.29836 1.09375 7 1.09375C5.70164 1.09375 4.62057 2.04135 4.41167 3.28125Z" fill="white"/>
</svg>
