<svg width="44" height="44" fill="none" xmlns="http://www.w3.org/2000/svg"><circle cx="22" cy="22" r="22" fill="#BC002D"/><g clip-path="url(#clip0)"><path d="M31.101 26.503l-2.686-2.687c-.96-.96-2.59-.575-2.974.672-.288.863-1.247 1.343-2.111 1.151-1.919-.48-4.51-2.974-4.989-4.989-.288-.863.288-1.823 1.151-2.11 1.247-.384 1.631-2.015.672-2.975l-2.687-2.686c-.767-.672-1.918-.672-2.59 0l-1.823 1.823c-1.823 1.918.192 7.003 4.701 11.513 4.51 4.509 9.595 6.62 11.513 4.7l1.823-1.822c.672-.767.672-1.919 0-2.59z" fill="#fff"/></g><defs><clipPath id="clip0"><path fill="#fff" transform="translate(12.375 12.375)" d="M0 0h19.25v19.25H0z"/></clipPath></defs></svg>