<svg width="32" height="32" fill="none" xmlns="http://www.w3.org/2000/svg"><path fill-rule="evenodd" clip-rule="evenodd" d="M26.612 5.344A14.77 14.77 0 0016.096.984C7.902.984 1.233 7.653 1.23 15.85a14.839 14.839 0 001.984 7.432l-2.109 7.703 7.881-2.067a14.85 14.85 0 007.104 1.81h.006c8.193 0 14.863-6.67 14.866-14.866a14.774 14.774 0 00-4.35-10.517zM16.096 28.216h-.005a12.34 12.34 0 01-6.289-1.722l-.45-.268-4.677 1.227 1.248-4.56-.294-.467A12.325 12.325 0 013.74 15.85C3.743 9.038 9.286 3.495 16.101 3.495c3.3.001 6.403 1.288 8.736 3.624a12.283 12.283 0 013.615 8.741c-.003 6.813-5.545 12.356-12.356 12.356zm6.778-9.254c-.372-.186-2.198-1.084-2.539-1.209-.34-.123-.588-.185-.835.187-.248.371-.96 1.208-1.176 1.456-.217.248-.434.279-.805.093-.372-.186-1.568-.578-2.987-1.844-1.104-.985-1.85-2.201-2.067-2.573-.216-.372-.002-.554.163-.758.402-.5.805-1.023.929-1.27.124-.248.062-.465-.031-.651s-.836-2.014-1.145-2.758c-.302-.724-.608-.627-.836-.638-.217-.01-.464-.013-.712-.013-.248 0-.65.093-.99.465-.341.372-1.3 1.27-1.3 3.099 0 1.828 1.33 3.594 1.516 3.842.186.248 2.62 4 6.345 5.609.887.383 1.579.611 2.118.782.89.283 1.7.243 2.34.148.713-.107 2.197-.9 2.507-1.767.31-.867.31-1.611.216-1.766-.092-.155-.34-.248-.711-.434z" fill="#fff"/></svg>