<svg width="14" height="14" viewBox="0 0 14 14" fill="none" xmlns="http://www.w3.org/2000/svg">
<g opacity="0.7">
<path d="M6.88152 0.431641C4.36595 0.431641 2.31934 2.47826 2.31934 4.99383C2.31934 8.15563 6.88601 13.5566 6.88601 13.5566C6.88601 13.5566 11.4437 8.00014 11.4437 4.99383C11.4437 2.47826 9.39717 0.431641 6.88152 0.431641ZM8.25803 6.32964C7.87848 6.70911 7.38004 6.89889 6.88152 6.89889C6.38309 6.89889 5.88449 6.70911 5.5051 6.32964C4.74607 5.57069 4.74607 4.33573 5.5051 3.57671C5.87263 3.20901 6.36154 3.00649 6.88152 3.00649C7.40151 3.00649 7.89033 3.20909 8.25803 3.57671C9.01706 4.33573 9.01706 5.57069 8.25803 6.32964Z" fill="white"/>
</g>
</svg>
