<svg width="18" height="18" viewBox="0 0 18 18" fill="none" xmlns="http://www.w3.org/2000/svg">
<g clip-path="url(#clip0)">
<path d="M7.45402 5.8924C7.08127 5.66965 6.60352 5.9389 6.60352 6.3754V11.6254C6.60352 12.0642 7.08202 12.3297 7.45402 12.1092L11.8558 9.48791C12.2218 9.26966 12.221 8.74015 11.8565 8.52115L7.45402 5.8924ZM7.72852 10.6362V7.36615L10.4698 9.00341L7.72852 10.6362Z" fill="white"/>
<path d="M14.928 2.45314C11.4382 1.93489 6.56325 1.93489 3.072 2.45314C1.6755 2.66014 0.57525 3.75664 0.33525 5.18014C-0.11175 7.82239 -0.11175 10.1781 0.33525 12.8196C0.57525 14.2439 1.6755 15.3396 3.072 15.5466C4.821 15.8061 6.915 15.9359 9.00825 15.9359C11.0977 15.9359 13.1865 15.8069 14.9287 15.5474C16.3237 15.3404 17.4232 14.2446 17.6647 12.8204C18.1117 10.1781 18.1117 7.82164 17.6647 5.17939C17.4247 3.75664 16.3245 2.66014 14.928 2.45314V2.45314ZM16.5555 12.6329C16.3957 13.5749 15.6757 14.2994 14.763 14.4344C11.3745 14.9376 6.6345 14.9376 3.237 14.4336C2.3235 14.2979 1.60275 13.5741 1.44375 12.6321C1.01325 10.0866 1.01325 7.91389 1.44375 5.36689C1.6035 4.42489 2.3235 3.70189 3.23775 3.56539C4.93425 3.31414 6.9675 3.18814 8.99925 3.18814C11.0325 3.18814 13.0657 3.31414 14.7622 3.56539C15.6757 3.70114 16.3965 4.42489 16.5555 5.36689C16.986 7.91389 16.986 10.0866 16.5555 12.6329Z" fill="white"/>
</g>
<defs>
<clipPath id="clip0">
<rect width="18" height="18" fill="white"/>
</clipPath>
</defs>
</svg>
