<svg width="44" height="44" viewBox="0 0 44 44" fill="none" xmlns="http://www.w3.org/2000/svg">
<circle cx="22" cy="22" r="22" fill="#BC002D"/>
<g clip-path="url(#clip0)">
<path d="M31.1013 26.5026L28.4149 23.8162C27.4555 22.8567 25.8245 23.2405 25.4407 24.4878C25.1529 25.3513 24.1935 25.831 23.33 25.6391C21.4111 25.1594 18.8207 22.6649 18.341 20.6501C18.0531 19.7865 18.6288 18.8271 19.4923 18.5393C20.7395 18.1555 21.1233 16.5245 20.1639 15.5651L17.4775 12.8787C16.7099 12.2071 15.5586 12.2071 14.887 12.8787L13.0641 14.7016C11.2412 16.6205 13.256 21.7054 17.7653 26.2147C22.2746 30.724 27.3596 32.8348 29.2784 30.9159L31.1013 29.093C31.773 28.3255 31.773 27.1742 31.1013 26.5026Z" fill="white"/>
</g>
<defs>
<clipPath id="clip0">
<rect width="19.25" height="19.25" fill="white" transform="translate(12.375 12.375)"/>
</clipPath>
</defs>
</svg>
