<svg width="14" height="14" fill="none" xmlns="http://www.w3.org/2000/svg"><path d="M13.453 9.68H10.72V2.188A2.19 2.19 0 008.53 0H2.187A2.19 2.19 0 000 2.188v.546c0 .302.245.547.547.547H1.64v8.531A2.19 2.19 0 003.828 14h7.985A2.19 2.19 0 0014 11.812v-1.585a.547.547 0 00-.547-.547zM1.093 2.188c0-.604.491-1.094 1.095-1.094h4.45a2.174 2.174 0 00-.294 1.093h-5.25zm2.735 10.718c-.603 0-1.094-.49-1.094-1.094v-8.53h4.157a.547.547 0 00.546-.548v-.546a1.095 1.095 0 012.188 0v9.624c0 .399.108.772.294 1.094H3.83zm9.078-1.094a1.095 1.095 0 01-2.187 0v-1.039h2.187v1.04zm-4.375-6.58a.547.547 0 01-.547.547H4.375a.547.547 0 110-1.094h3.61c.301 0 .546.245.546.547zm0 2.497a.547.547 0 01-.547.547H4.375a.547.547 0 110-1.094h3.61c.301 0 .546.245.546.547zm-1.804 2.498a.547.547 0 01-.547.546H4.375a.547.547 0 110-1.093H6.18c.302 0 .547.245.547.547z" fill="#fff"/></svg>