<svg width="14" height="14" fill="none" xmlns="http://www.w3.org/2000/svg"><path d="M12.746 13.066a.547.547 0 11-.773.774l-.707-.707-.707.707a.547.547 0 11-.774-.774l.707-.707-.707-.707a.547.547 0 11.774-.773l.707.707.707-.707a.547.547 0 11.773.773l-.707.707.707.707zm-4.215.387a.547.547 0 01-.547.547H1.641a.547.547 0 01-.547-.547V3.828c0-.302.245-.547.547-.547h1.666A3.724 3.724 0 017 0a3.724 3.724 0 013.693 3.281h1.666c.302 0 .547.245.547.547v5.25a.547.547 0 11-1.094 0V4.375H10.72v1.64a.547.547 0 01-1.094 0v-1.64h-5.25v1.64a.547.547 0 11-1.094 0v-1.64H2.187v8.531h5.797c.302 0 .547.245.547.547zM4.411 3.281h5.177A2.63 2.63 0 007 1.094 2.63 2.63 0 004.412 3.28z" fill="#fff"/></svg>