<svg width="88" height="80" fill="none" xmlns="http://www.w3.org/2000/svg"><g filter="url(#filter0_d)"><circle cx="44" cy="40" r="28" fill="#BC002D"/><g clip-path="url(#clip0)" fill="#fff"><path fill-rule="evenodd" clip-rule="evenodd" d="M34.491 30.488c4.74-4.739 12.41-4.74 17.15 0 3.811 3.811 4.532 9.478 2.278 13.991l1.25 5.495a.997.997 0 01-1.193 1.192l-5.494-1.25c-7.99 3.99-17.543-1.785-17.543-10.853a12.05 12.05 0 013.552-8.575zm13.635 11.595h-7.59a.996.996 0 110-1.992h7.59a.996.996 0 110 1.992zm0-4.047h-10.12a.996.996 0 010-1.992h10.12a.996.996 0 010 1.992z"/><path d="M38.007 38.036h10.119a.996.996 0 000-1.992h-10.12a.996.996 0 100 1.992zm2.529 4.047h7.59a.996.996 0 100-1.992h-7.59a.996.996 0 100 1.992z"/></g></g><defs><clipPath id="clip0"><path fill="#fff" transform="matrix(-1 0 0 1 55.2 26.934)" d="M0 0h24.267v24.267H0z"/></clipPath><filter id="filter0_d" x=".32" y="-.32" width="87.36" height="87.36" filterUnits="userSpaceOnUse" color-interpolation-filters="sRGB"><feFlood flood-opacity="0" result="BackgroundImageFix"/><feColorMatrix in="SourceAlpha" values="0 0 0 0 0 0 0 0 0 0 0 0 0 0 0 0 0 0 127 0"/><feOffset dy="3.36"/><feGaussianBlur stdDeviation="7.84"/><feColorMatrix values="0 0 0 0 0.95 0 0 0 0 0 0 0 0 0 0.227394 0 0 0 0.4 0"/><feBlend in2="BackgroundImageFix" result="effect1_dropShadow"/><feBlend in="SourceGraphic" in2="effect1_dropShadow" result="shape"/></filter></defs></svg>