<svg width="38" height="38" fill="none" xmlns="http://www.w3.org/2000/svg"><path fill-rule="evenodd" clip-rule="evenodd" d="M32.265 5.68A18.462 18.462 0 0019.12.23C8.878.23.542 8.566.538 18.811a18.549 18.549 0 002.48 9.29l-2.636 9.63 9.85-2.585a18.563 18.563 0 008.88 2.262h.008c10.242 0 18.579-8.336 18.582-18.582A18.468 18.468 0 0032.265 5.68zM19.12 34.27h-.006a15.425 15.425 0 01-7.861-2.153l-.564-.335-5.846 1.534 1.56-5.7-.367-.584a15.406 15.406 0 01-2.36-8.22c.002-8.515 6.931-15.443 15.45-15.443a15.34 15.34 0 0110.92 4.53 15.358 15.358 0 014.52 10.926c-.005 8.516-6.933 15.445-15.446 15.445zm8.472-11.568c-.464-.232-2.747-1.355-3.173-1.51-.425-.155-.735-.232-1.044.232-.31.465-1.2 1.511-1.47 1.82-.271.31-.542.35-1.006.117-.465-.232-1.96-.723-3.734-2.305-1.38-1.23-2.312-2.751-2.583-3.216-.27-.465-.003-.692.203-.947.503-.625 1.006-1.279 1.161-1.589.155-.31.077-.58-.039-.813-.116-.232-1.044-2.518-1.431-3.448-.377-.905-.76-.782-1.045-.797-.27-.013-.58-.016-.89-.016-.31 0-.812.116-1.238.581-.426.465-1.625 1.588-1.625 3.874 0 2.285 1.664 4.493 1.896 4.803.232.31 3.274 5 7.932 7.01 1.107.48 1.972.765 2.647.979 1.112.353 2.124.303 2.924.184.892-.134 2.747-1.124 3.134-2.208.387-1.085.387-2.014.27-2.208-.115-.194-.425-.31-.889-.543z" fill="#fff"/></svg>